. 
 
http://www.torrenting.com          :     Once & For all ;)


               www . Torrenting . Com 

(((((((((((((= Enjoy No RAR releases =))))))))))))))))))))


...................................NFO:....................................

.[IMG]http://img27.imageshack.us/img27/8278/hostelm.jpg[/IMG]


[color=blue][size=5][b]Hostel.Part.III.2011.DVDRip.XVID.AC3.HQ.Hive-CM8[/b][/size][/color]


[b]Thx Hive

CM8 Doing It Right The First Time :D


Source: DVD-9 SIC baby
thx guys

Encode:
DVD was nice, just too dark for my liking, colours also slightly off...
fixed all that, looks good now.
enjoy

Video: 720x400 @bitrate 1700 2pass
Audio: English AC3 5.1 @448
Sample: Yes, included
Subs: Yes, English in srt /subs[/b]
 
http://www.imdb.com/title/tt1255916/


General
Complete name                  : Hostel.Part.III.2011.DVDRip.XVID.AC3.HQ.Hive-CM8.avi
Format                         : AVI
Format/Info                    : Audio Video Interleave
File size                      : 1.32 GiB
Duration                       : 1h 27mn
Overall bit rate               : 2 157 Kbps
Writing application            : Nandub v1.0rc2
Writing library                : Nandub build 1853/release

Video
ID                             : 0
Format                         : MPEG-4 Visual
Format profile                 : Advanced Simple@L5
Format settings, BVOP          : 2
Format settings, QPel          : Yes
Format settings, GMC           : No warppoints
Format settings, Matrix        : Default (H.263)
Muxing mode                    : Packed bitstream
Codec ID                       : XVID
Codec ID/Hint                  : XviD
Duration                       : 1h 27mn
Bit rate                       : 1 700 Kbps
Width                          : 720 pixels
Height                         : 400 pixels
Display aspect ratio           : 16:9
Frame rate                     : 23.976 fps
Color space                    : YUV
Chroma subsampling             : 4:2:0
Bit depth                      : 8 bits
Scan type                      : Progressive
Compression mode               : Lossy
Bits/(Pixel*Frame)             : 0.246
Stream size                    : 1.04 GiB (79%)
Writing library                : XviD 1.2.1 (UTC 2008-12-04)

Audio
ID                             : 1
Format                         : AC-3
Format/Info                    : Audio Coding 3
Mode extension                 : CM (complete main)
Codec ID                       : 2000
Duration                       : 1h 27mn
Bit rate mode                  : Constant
Bit rate                       : 448 Kbps
Channel(s)                     : 6 channels
Channel positions              : Front: L C R, Side: L R, LFE
Sampling rate                  : 48.0 KHz
Bit depth                      : 16 bits
Compression mode               : Lossy
Stream size                    : 281 MiB (21%)
Alignment                      : Split accross interleaves
Interleave, duration           : 42 ms (1.00 video frame)
Interleave, preload duration   : 500 ms


Plot:
While attending a bachelor party in Las Vegas, four friends are enticed by
two sexy escorts to join them at a private party way off the Strip.


Cast:
Thomas Kretschmann   ...    Flemming
Zulay Henao          ...    Nikki
Kip Pardue           ...    Carter McMullen
John Hensley         ...    Justin


[img]http://img838.imageshack.us/img838/1920/hhohohohohoo.png[/img]
[img]http://img685.imageshack.us/img685/2941/hhohohohoo.png[/img]
[img]http://img408.imageshack.us/img408/4121/hhohohoo.png[/img]
[img]http://img687.imageshack.us/img687/170/hhohoo.png[/img]
[img]http://img36.imageshack.us/img36/6150/34545943.png[/img]



Greetz

ViSiON,SPK,SANTi,3LT0N,YanKeeS,MAGNET,THC,T0XiC,LKRG,Feel-Free,FLAWL3SS,
WBZ,BHRG,NOVA,D2U,Rapeseed,SAFC,goldadvance,KaN1vE,Unevano,Pinnz,Wayne
Mr Hive,and most P2P groups
Great Work Guys :D

LOOKING FOR ANYTHING YOU WANT TO LOOK AND SOUND BETTER

CM8@hushmail.com